<svg width="1280" height="720" xmlns="http://www.w3.org/2000/svg" xmlns:xlink="http://www.w3.org/1999/xlink" overflow="hidden"><defs><clipPath id="clip0"><rect x="0" y="0" width="1280" height="720"/></clipPath></defs><g clip-path="url(#clip0)"><rect x="0" y="0" width="1280" height="720" fill="#FFFFFF"/><path d="M573.5 112C573.5 104.544 579.544 98.5001 587 98.5001L735 98.5001C742.456 98.5001 748.5 104.544 748.5 112L748.5 112C748.5 119.456 742.456 125.5 735 125.5L587 125.5C579.544 125.5 573.5 119.456 573.5 112Z" stroke="#000000" stroke-width="1.33333" stroke-miterlimit="8" fill="none" fill-rule="evenodd"/><text font-family="Calibri,Calibri_MSFontService,sans-serif" font-weight="400" font-size="16" transform="translate(622.027 118)">Start, <tspan fill="#222222" font-family="Cambria Math,Cambria Math_MSFontService,sans-serif" font-size="16" x="38.8333" y="0">ğ‘‘</tspan><tspan font-size="16" x="48.6733" y="0">= Inf </tspan></text><path d="M662 127 662 136.877 660 136.877 660 127ZM665 135.544 661 143.544 657 135.544Z"/><text font-family="Calibri,Calibri_MSFontService,sans-serif" font-weight="400" font-size="16" transform="translate(687.16 421)">Yes</text><path d="M0 1-24.0001 1-23.0001 0-23.0001 193.923-24.0001 192.923-1.19108 192.923-1.19108 194.923-25.0001 194.923-25.0001-1 0-1ZM-2.52441 189.923 5.47559 193.923-2.52441 197.923Z" transform="matrix(1 -1.22465e-16 -1.22465e-16 -1 558 507.923)"/><path d="M540.5 210.5 557.25 143.5 799.5 143.5 782.75 210.5Z" stroke="#000000" stroke-width="1.33333" stroke-miterlimit="8" fill="none" fill-rule="evenodd"/><text font-family="Calibri,Calibri_MSFontService,sans-serif" font-weight="400" font-size="16" transform="translate(557.967 162)">Set monomer distribution <tspan font-family="Cambria Math,Cambria Math_MSFontService,sans-serif" font-size="16" x="171.5" y="0">ğ‘´</tspan><tspan font-size="16" x="186.167" y="0">; </tspan><tspan font-size="16" x="0" y="19">linkage distribution </tspan><tspan font-family="Cambria Math,Cambria Math_MSFontService,sans-serif" font-size="16" x="128.833" y="19">ğ‘³</tspan>;<tspan font-size="16" x="0" y="38">branching coefficient </tspan><tspan font-family="Cambria Math,Cambria Math_MSFontService,sans-serif" font-size="16" x="140.667" y="38">ğ‘¿</tspan><tspan font-size="16" x="155.333" y="38">(</tspan><tspan font-size="16" x="160.167" y="38">optional)</tspan></text><path d="M558.5 272.5 570.5 224.5 764.5 224.5 752.5 272.5Z" stroke="#000000" stroke-width="1.33333" stroke-miterlimit="8" fill="none" fill-rule="evenodd"/><rect x="564.5" y="291.5" width="194" height="45" stroke="#000000" stroke-width="1.33333" stroke-miterlimit="8" fill="#9DC3E6"/><text font-family="Calibri,Calibri_MSFontService,sans-serif" font-weight="400" font-size="16" transform="translate(607.531 246)">Set optimization <tspan font-size="16" x="-3" y="19">hyper</tspan><tspan font-size="16" x="34.3333" y="19">parameters</tspan><tspan font-size="16" x="-2.41669" y="65">Optimize a single </tspan><tspan font-size="16" x="17.6633" y="84">polymer </tspan><tspan font-family="Cambria Math,Cambria Math_MSFontService,sans-serif" font-size="16" x="75.33" y="84">ğ‘ƒ</tspan><tspan font-family="Cambria Math,Cambria Math_MSFontService,sans-serif" font-size="12" x="83.61" y="87">ğ‘–</tspan></text><path d="M561.5 383 661 351.5 760.5 383 661 414.5Z" stroke="#000000" stroke-width="1.33333" stroke-linejoin="round" stroke-miterlimit="10" fill="none" fill-rule="evenodd"/><text font-family="Calibri Light,Calibri Light_MSFontService,sans-serif" font-weight="300" font-size="16" transform="translate(598.332 381)">Metropolis <tspan fill="#222222" font-size="16" x="74" y="0">criterion </tspan><tspan fill="#222222" font-size="16" x="30.7533" y="19">on </tspan><tspan fill="#222222" font-family="Cambria Math,Cambria Math_MSFontService,sans-serif" font-weight="400" font-size="16" x="51.0867" y="19">ğ‘‘</tspan><tspan font-size="16" x="64.5933" y="19">met?</tspan></text><rect x="564.5" y="426.5" width="194" height="46" stroke="#000000" stroke-width="1.33333" stroke-miterlimit="8" fill="none"/><text font-family="Calibri,Calibri_MSFontService,sans-serif" font-weight="400" font-size="16" transform="translate(573.987 447)">Add <tspan font-family="Cambria Math,Cambria Math_MSFontService,sans-serif" font-size="16" x="29.6667" y="0">ğ‘ƒ</tspan><tspan font-family="Cambria Math,Cambria Math_MSFontService,sans-serif" font-size="12" x="37.9467" y="3">ğ‘–</tspan><tspan font-size="16" x="46.8467" y="0">into the population;</tspan><tspan font-family="Cambria Math,Cambria Math_MSFontService,sans-serif" font-size="16" x="51.9467" y="19">ğ‘</tspan><tspan font-family="Cambria Math,Cambria Math_MSFontService,sans-serif" font-size="16" x="68.4534" y="19">=</tspan><tspan font-family="Cambria Math,Cambria Math_MSFontService,sans-serif" font-size="16" x="84.9" y="19">ğ‘</tspan><tspan font-family="Cambria Math,Cambria Math_MSFontService,sans-serif" font-size="16" x="100.513" y="19">+</tspan><tspan font-family="Cambria Math,Cambria Math_MSFontService,sans-serif" font-size="16" x="116.067" y="19"> </tspan><tspan font-family="Cambria Math,Cambria Math_MSFontService,sans-serif" font-size="16" x="119.567" y="19">1</tspan></text><rect x="564.5" y="545.5" width="194" height="35" stroke="#000000" stroke-width="1.33333" stroke-miterlimit="8" fill="#C5E0B4"/><text font-family="Calibri,Calibri_MSFontService,sans-serif" font-weight="400" font-size="16" transform="translate(570.167 566)">Add intramolecular linkages</text><path d="M569.5 607C569.5 598.992 575.992 592.5 584 592.5L739 592.5C747.008 592.5 753.5 598.992 753.5 607L753.5 607C753.5 615.008 747.008 621.5 739 621.5L584 621.5C575.992 621.5 569.5 615.008 569.5 607Z" stroke="#000000" stroke-width="1.33333" stroke-miterlimit="8" fill="none" fill-rule="evenodd"/><text font-family="Calibri,Calibri_MSFontService,sans-serif" font-weight="400" font-size="16" transform="translate(627.197 613)">Terminate</text><path d="M558.5 508 661.5 484.5 764.5 508 661.5 531.5Z" stroke="#000000" stroke-width="1.33333" stroke-linejoin="round" stroke-miterlimit="10" fill="none" fill-rule="evenodd"/><text font-family="Cambria Math,Cambria Math_MSFontService,sans-serif" font-weight="400" font-size="16" transform="translate(597.734 512)">ğ‘–<tspan font-size="12" x="5" y="4">ğ‘ ğ‘¡ğ‘’ğ‘</tspan><tspan font-size="16" x="32.5267" y="0"> </tspan><tspan font-size="16" x="38.2534" y="0">â‰¤</tspan><tspan font-size="16" x="52.4733" y="0"> </tspan><tspan font-size="16" x="58.2" y="0">ğ‘–</tspan><tspan font-size="12" x="63.2" y="4">ğ‘ ğ‘¡ğ‘œ</tspan><tspan font-size="12" x="81.12" y="4">ğ‘</tspan><tspan font-size="10" x="88.1133" y="6">ğ‘œğ‘¢ğ‘¡ğ‘’ğ‘Ÿ</tspan><tspan font-size="16" x="117.6" y="0">?</tspan><tspan font-family="Calibri,Calibri_MSFontService,sans-serif" font-size="16" x="71.1676" y="31">No</tspan><tspan font-family="Calibri,Calibri_MSFontService,sans-serif" font-size="16" x="-49.2294" y="-12">Yes</tspan></text><path d="M760 381 788.304 381 788.304 508.311 769.97 508.311 769.97 506.311 787.304 506.311 786.304 507.311 786.304 382 787.304 383 760 383ZM771.304 511.311 763.304 507.311 771.304 503.311Z"/><text font-family="Calibri,Calibri_MSFontService,sans-serif" font-weight="400" font-size="16" transform="translate(761.282 369)">No</text><path d="M1-7.61585e-06 1.00005 7.11863-0.999946 7.11864-1 7.61585e-06ZM4.00004 5.78527 0.000104987 13.7853-3.99996 5.78533Z" transform="matrix(-1 0 0 1 661 210)"/><path d="M662 275 662 284.998 660 284.998 660 275ZM665 283.665 661 291.665 657 283.665Z"/><path d="M662 336 662 343.677 660 343.677 660 336ZM665 342.343 661 350.343 657 342.343Z"/><path d="M662 414 662 420.422 660 420.422 660 414ZM665 419.088 661 427.089 657 419.089Z"/><path d="M662 471.984 662.092 477.62 660.092 477.652 660 472.016ZM665.069 476.238 661.2 484.302 657.07 476.368Z"/><path d="M0.9999-0.0141234 1.10585 7.4868-0.893951 7.51505-0.9999 0.0141234ZM4.08672 6.11123 0.200105 14.1669-3.91248 6.22422Z" transform="matrix(-1 0 0 1 661.2 531)"/><path d="M662 580 662 585.658 660 585.658 660 580ZM665 584.325 661 592.325 657 584.325Z"/></g></svg>