<svg width="1280" height="720" xmlns="http://www.w3.org/2000/svg" xmlns:xlink="http://www.w3.org/1999/xlink" overflow="hidden"><defs><clipPath id="clip0"><rect x="0" y="0" width="1280" height="720"/></clipPath></defs><g clip-path="url(#clip0)"><rect x="0" y="0" width="1280" height="720" fill="#FFFFFF"/><path d="M53 276.203C53 255.656 69.6564 239 90.2032 239L934.797 239C955.344 239 972 255.656 972 276.203L972 639.797C972 660.344 955.344 677 934.797 677L90.2032 677C69.6564 677 53 660.344 53 639.797Z" stroke="#92D050" stroke-width="2" stroke-miterlimit="8" stroke-dasharray="8 6" stroke-opacity="0.501961" fill="#FFFFFF" fill-rule="evenodd"/><text font-family="Calibri,Calibri_MSFontService,sans-serif" font-weight="700" font-size="24" transform="translate(385.967 275)">M1<tspan font-size="24" x="85.5567" y="0">C1</tspan><tspan font-size="24" x="150.137" y="0">(C1,C2)</tspan></text><path d="M432.5 268.167 454.633 268.167 454.633 268.833 432.5 268.833ZM453.3 264.5 461.3 268.5 453.3 272.5Z" fill="#00A0DF"/><path d="M499.5 268.167 521.633 268.167 521.633 268.833 499.5 268.833ZM520.3 264.5 528.3 268.5 520.3 272.5Z" fill="#00A0DF"/><rect x="66.5001" y="482.5" width="60" height="26" stroke="#0074A4" stroke-width="1.33333" stroke-miterlimit="8" fill="none"/><text fill="#FF0000" font-family="Calibri,Calibri_MSFontService,sans-serif" font-weight="400" font-size="21" transform="translate(89.2387 502)">H</text><path d="M0.256887-0.212416 32.7577 39.0927 32.2439 39.5175-0.256887 0.212416ZM34.7337 35.7286 36.7491 44.4428 28.5685 40.8265Z" fill="#00A0DF" transform="matrix(1 0 0 -1 126.5 495.943)"/><rect x="163.5" y="438.5" width="69" height="25" stroke="#0074A4" stroke-width="1.33333" stroke-miterlimit="8" fill="none"/><text fill="#FF0000" font-family="Calibri,Calibri_MSFontService,sans-serif" font-weight="400" font-size="21" transform="translate(192.102 458)">4</text><path d="M0.0556909-0.328648 30.2318 4.78483 30.1204 5.44213-0.0556909 0.328648ZM29.5298 0.946936 36.7491 6.2273 28.1932 8.83449Z" fill="#00A0DF" transform="matrix(1 0 0 -1 126.5 495.727)"/><rect x="163.5" y="476.5" width="69" height="25" stroke="#0074A4" stroke-width="1.33333" stroke-miterlimit="8" fill="none"/><text fill="#FF0000" font-family="Calibri,Calibri_MSFontService,sans-serif" font-weight="400" font-size="21" transform="translate(192.102 496)">5</text><path d="M0.328573-0.0561323 23.4287 135.161 22.7715 135.274-0.328573 0.0561323ZM26.8185 133.23 24.2228 141.789 18.9327 134.577Z" fill="#00A0DF" transform="matrix(1 0 0 -1 232.5 451.289)"/><path d="M0.32576-0.0706507 23.1355 105.102 22.484 105.243-0.32576 0.0706507ZM26.4363 103.022 24.2228 111.688 18.618 104.717Z" fill="#00A0DF" transform="matrix(1 0 0 -1 232.5 451.188)"/><rect x="257.5" y="296.5" width="69" height="26" stroke="#0074A4" stroke-width="1.33333" stroke-miterlimit="8" fill="none"/><text fill="#FF0000" font-family="Calibri,Calibri_MSFontService,sans-serif" font-weight="400" font-size="21" transform="translate(271.511 316)">(4,5)</text><rect x="257.5" y="326.5" width="69" height="26" stroke="#0074A4" stroke-width="1.33333" stroke-miterlimit="8" fill="none"/><text fill="#FF0000" font-family="Calibri,Calibri_MSFontService,sans-serif" font-weight="400" font-size="21" transform="translate(271.511 346)">(4,7)</text><rect x="163.5" y="515.5" width="69" height="25" stroke="#0074A4" stroke-width="1.33333" stroke-miterlimit="8" fill="none"/><text fill="#FF0000" font-family="Calibri,Calibri_MSFontService,sans-serif" font-weight="400" font-size="21" transform="translate(192.102 535)">7</text><rect x="163.5" y="552.5" width="69" height="25" stroke="#0074A4" stroke-width="1.33333" stroke-miterlimit="8" fill="none"/><text fill="#FF0000" font-family="Calibri,Calibri_MSFontService,sans-serif" font-weight="400" font-size="21" transform="translate(192.102 572)">8</text><rect x="257.5" y="357.5" width="70" height="26" stroke="#0074A4" stroke-width="1.33333" stroke-miterlimit="8" fill="none"/><text fill="#FF0000" font-family="Calibri,Calibri_MSFontService,sans-serif" font-weight="400" font-size="21" transform="translate(271.654 377)">(4,8)</text><rect x="257.5" y="405.5" width="69" height="25" stroke="#0074A4" stroke-width="1.33333" stroke-miterlimit="8" fill="none"/><text fill="#FF0000" font-family="Calibri,Calibri_MSFontService,sans-serif" font-weight="400" font-size="21" transform="translate(271.511 425)">(5,4)</text><rect x="257.5" y="436.5" width="69" height="26" stroke="#0074A4" stroke-width="1.33333" stroke-miterlimit="8" fill="none"/><text fill="#FF0000" font-family="Calibri,Calibri_MSFontService,sans-serif" font-weight="400" font-size="21" transform="translate(271.545 456)">(5,5)</text><rect x="257.5" y="468.5" width="70" height="26" stroke="#0074A4" stroke-width="1.33333" stroke-miterlimit="8" fill="none"/><text fill="#FF0000" font-family="Calibri,Calibri_MSFontService,sans-serif" font-weight="400" font-size="21" transform="translate(271.684 488)">(5,8)</text><rect x="257.5" y="514.5" width="69" height="26" stroke="#0074A4" stroke-width="1.33333" stroke-miterlimit="8" fill="none"/><text fill="#FF0000" font-family="Calibri,Calibri_MSFontService,sans-serif" font-weight="400" font-size="21" transform="translate(271.511 535)">(7,4)</text><rect x="257.5" y="564.5" width="69" height="25" stroke="#0074A4" stroke-width="1.33333" stroke-miterlimit="8" fill="none"/><text fill="#FF0000" font-family="Calibri,Calibri_MSFontService,sans-serif" font-weight="400" font-size="21" transform="translate(271.511 584)">(8,4)</text><rect x="257.5" y="596.5" width="70" height="26" stroke="#0074A4" stroke-width="1.33333" stroke-miterlimit="8" fill="none"/><text fill="#FF0000" font-family="Calibri,Calibri_MSFontService,sans-serif" font-weight="400" font-size="21" transform="translate(271.637 616)">(8,5)</text><rect x="257.5" y="631.5" width="70" height="26" stroke="#0074A4" stroke-width="1.33333" stroke-miterlimit="8" fill="none"/><text fill="#FF0000" font-family="Calibri,Calibri_MSFontService,sans-serif" font-weight="400" font-size="21" transform="translate(271.762 651)">(8,8)</text><path d="M0.319035-0.0965792 22.7532 74.0116 22.1152 74.2048-0.319035 0.0965792ZM25.8763 71.673 24.3658 80.4888 18.2194 73.9909Z" fill="#00A0DF" transform="matrix(1 0 0 -1 232.5 450.989)"/><path d="M0.315589-0.107307 22.3922 64.8196 21.7611 65.0342-0.315589 0.107307ZM25.4345 62.3768 24.2228 71.2386 17.8603 64.9522Z" fill="#00A0DF" transform="matrix(1 0 0 -1 232.5 489.739)"/><path d="M0.284051-0.174431 21.0523 33.6456 20.4842 33.9944-0.284051 0.174431ZM23.4792 30.5906 24.2569 39.501 16.6619 34.7769Z" fill="#00A0DF" transform="matrix(1 0 0 -1 232.5 489.001)"/><path d="M0.0995702-0.318115 18.1334 5.32649 17.9343 5.96272-0.0995702 0.318115ZM17.9562 1.42895 24.3961 7.63601 15.5665 9.0637Z" fill="#00A0DF" transform="matrix(1 0 0 -1 232.5 489.136)"/><path d="M0.00357843-0.333314 17.56-0.14483 17.5528 0.521798-0.00357843 0.333314ZM16.2661-3.8256 24.2227 0.260052 16.1802 4.17394Z" fill="#00A0DF" transform="matrix(1 0 0 -1 232.5 527.76)"/><path d="M232.647 565.201 250.883 574.14 250.59 574.739 232.353 565.799ZM251.3 570.261 256.723 577.374 247.779 577.445Z" fill="#00A0DF"/><path d="M232.793 565.34 253.943 604.02 253.358 604.34 232.208 565.66ZM256.52 601.091 256.849 610.03 249.501 604.93Z" fill="#00A0DF"/><path d="M232.819 565.402 255.33 638.467 254.693 638.663 232.181 565.598ZM258.442 636.113 256.974 644.936 250.796 638.469Z" fill="#00A0DF"/><path d="M126.721 495.251 158.484 523.433 158.041 523.932 126.279 495.749ZM159.92 519.806 163.249 528.107 154.61 525.79Z" fill="#00A0DF"/><path d="M126.795 495.344 160.43 559.025 159.841 559.337 126.205 495.656ZM163.05 556.134 163.249 565.076 155.976 559.87Z" fill="#00A0DF"/><rect x="357.5" y="477.5" width="60" height="26" stroke="#0074A4" stroke-width="1.33333" stroke-miterlimit="8" fill="none"/><text fill="#FF0000" font-family="Calibri,Calibri_MSFontService,sans-serif" font-weight="400" font-size="21" transform="translate(380.048 497)">G</text><path d="M0.228466-0.242723 39.5607 36.7793 39.1037 37.2648-0.228466 0.242723ZM41.1029 33.1955 44.1867 41.5914 35.6197 39.0209Z" fill="#00A0DF" transform="matrix(1 0 0 -1 417.5 491.091)"/><rect x="461.5" y="436.5" width="70" height="26" stroke="#0074A4" stroke-width="1.33333" stroke-miterlimit="8" fill="none"/><text fill="#FF0000" font-family="Calibri,Calibri_MSFontService,sans-serif" font-weight="400" font-size="21" transform="translate(490.433 456)">4</text><path d="M0.0253926-0.332365 37.5648 2.53564 37.514 3.20037-0.0253926 0.332365ZM36.5146-1.22195 44.1867 3.37585 35.9052 6.75481Z" fill="#00A0DF" transform="matrix(1 0 0 -1 417.5 490.876)"/><rect x="461.5" y="474.5" width="70" height="25" stroke="#0074A4" stroke-width="1.33333" stroke-miterlimit="8" fill="none"/><text fill="#FF0000" font-family="Calibri,Calibri_MSFontService,sans-serif" font-weight="400" font-size="21" transform="translate(490.433 494)">5</text><path d="M0.328804-0.0547663 23.437 138.681 22.7794 138.791-0.328804 0.0547663ZM26.8348 136.764 24.2036 145.312 18.9435 138.078Z" fill="#00A0DF" transform="matrix(1 0 0 -1 531.5 448.812)"/><path d="M0.326213-0.068531 23.1591 108.618 22.5067 108.755-0.326213 0.068531ZM26.4734 106.559 24.2036 115.211 18.6443 108.204Z" fill="#00A0DF" transform="matrix(1 0 0 -1 531.5 448.711)"/><rect x="555.5" y="290.5" width="70" height="26" stroke="#0074A4" stroke-width="1.33333" stroke-miterlimit="8" fill="none"/><text fill="#FF0000" font-family="Calibri,Calibri_MSFontService,sans-serif" font-weight="400" font-size="21" transform="translate(569.822 311)">(4,5)</text><rect x="555.5" y="321.5" width="70" height="25" stroke="#0074A4" stroke-width="1.33333" stroke-miterlimit="8" fill="none"/><text fill="#FF0000" font-family="Calibri,Calibri_MSFontService,sans-serif" font-weight="400" font-size="21" transform="translate(569.822 341)">(4,7)</text><rect x="461.5" y="513.5" width="70" height="26" stroke="#0074A4" stroke-width="1.33333" stroke-miterlimit="8" fill="none"/><text fill="#FF0000" font-family="Calibri,Calibri_MSFontService,sans-serif" font-weight="400" font-size="21" transform="translate(490.433 533)">7</text><rect x="461.5" y="550.5" width="70" height="25" stroke="#0074A4" stroke-width="1.33333" stroke-miterlimit="8" fill="none"/><text fill="#FF0000" font-family="Calibri,Calibri_MSFontService,sans-serif" font-weight="400" font-size="21" transform="translate(490.433 570)">8</text><rect x="555.5" y="352.5" width="70" height="26" stroke="#0074A4" stroke-width="1.33333" stroke-miterlimit="8" fill="none"/><text fill="#FF0000" font-family="Calibri,Calibri_MSFontService,sans-serif" font-weight="400" font-size="21" transform="translate(569.822 372)">(4,8)</text><rect x="555.5" y="400.5" width="70" height="26" stroke="#0074A4" stroke-width="1.33333" stroke-miterlimit="8" fill="none"/><text fill="#FF0000" font-family="Calibri,Calibri_MSFontService,sans-serif" font-weight="400" font-size="21" transform="translate(569.822 420)">(5,4)</text><rect x="555.5" y="432.5" width="70" height="26" stroke="#0074A4" stroke-width="1.33333" stroke-miterlimit="8" fill="none"/><text fill="#FF0000" font-family="Calibri,Calibri_MSFontService,sans-serif" font-weight="400" font-size="21" transform="translate(569.822 452)">(5,5)</text><rect x="555.5" y="464.5" width="70" height="25" stroke="#0074A4" stroke-width="1.33333" stroke-miterlimit="8" fill="none"/><text fill="#FF0000" font-family="Calibri,Calibri_MSFontService,sans-serif" font-weight="400" font-size="21" transform="translate(569.822 484)">(5,8)</text><rect x="555.5" y="513.5" width="70" height="25" stroke="#0074A4" stroke-width="1.33333" stroke-miterlimit="8" fill="none"/><text fill="#FF0000" font-family="Calibri,Calibri_MSFontService,sans-serif" font-weight="400" font-size="21" transform="translate(569.822 533)">(7,4)</text><rect x="555.5" y="564.5" width="70" height="26" stroke="#0074A4" stroke-width="1.33333" stroke-miterlimit="8" fill="none"/><text fill="#FF0000" font-family="Calibri,Calibri_MSFontService,sans-serif" font-weight="400" font-size="21" transform="translate(569.822 584)">(8,4)</text><rect x="555.5" y="597.5" width="70" height="26" stroke="#0074A4" stroke-width="1.33333" stroke-miterlimit="8" fill="none"/><text fill="#FF0000" font-family="Calibri,Calibri_MSFontService,sans-serif" font-weight="400" font-size="21" transform="translate(569.822 617)">(8,5)</text><rect x="555.5" y="632.5" width="70" height="26" stroke="#0074A4" stroke-width="1.33333" stroke-miterlimit="8" fill="none"/><text fill="#FF0000" font-family="Calibri,Calibri_MSFontService,sans-serif" font-weight="400" font-size="21" transform="translate(569.822 652)">(8,8)</text><path d="M0.320306-0.0922792 22.6783 77.5134 22.0377 77.6979-0.320306 0.0922792ZM25.8325 75.2171 24.2036 84.0118 18.1452 77.4318Z" fill="#00A0DF" transform="matrix(1 0 0 -1 531.5 449.512)"/><path d="M0.316768-0.103774 22.4449 67.4417 21.8113 67.6493-0.316768 0.103774ZM25.5142 65.0331 24.2036 73.8808 17.9118 67.5237Z" fill="#00A0DF" transform="matrix(1 0 0 -1 531.5 487.381)"/><path d="M0.289054-0.166009 21.1724 36.1961 20.5943 36.5281-0.289054 0.166009ZM23.688 33.2138 24.2036 42.1432 16.7507 37.198Z" fill="#00A0DF" transform="matrix(1 0 0 -1 531.5 487.643)"/><path d="M0.130291-0.306815 18.1976 7.36558 17.937 7.97921-0.130291 0.306815ZM18.4035 3.46945 24.2036 10.2782 15.2765 10.833Z" fill="#00A0DF" transform="matrix(1 0 0 -1 531.5 487.778)"/><path d="M0.00358126-0.333314 17.5409-0.144887 17.5337 0.521742-0.00358126 0.333314ZM16.247-3.82567 24.2036 0.260052 16.1611 4.17387Z" fill="#00A0DF" transform="matrix(1 0 0 -1 531.5 525.76)"/><path d="M531.672 563.214 550.158 574.302 549.815 574.873 531.329 563.786ZM550.9 570.471 555.704 578.016 546.786 577.332Z" fill="#00A0DF"/><path d="M531.797 563.348 552.966 604.756 552.372 605.059 531.203 563.652ZM555.624 601.899 555.704 610.843 548.5 605.541Z" fill="#00A0DF"/><path d="M531.82 563.406 554.138 639.09 553.498 639.278 531.18 563.594ZM557.278 636.774 555.704 645.579 549.604 639.037Z" fill="#00A0DF"/><path d="M417.709 490.24 456.696 521.526 456.279 522.046 417.291 490.76ZM457.951 517.832 461.687 525.959 452.944 524.071Z" fill="#00A0DF"/><path d="M417.785 490.326 458.499 557.063 457.93 557.41 417.216 490.674ZM460.935 554.015 461.687 562.927 454.106 558.181Z" fill="#00A0DF"/><rect x="664.5" y="476.5" width="60" height="26" stroke="#0074A4" stroke-width="1.33333" stroke-miterlimit="8" fill="none"/><text fill="#FF0000" font-family="Calibri,Calibri_MSFontService,sans-serif" font-weight="400" font-size="21" transform="translate(689.195 496)">S</text><path d="M0.241624-0.229628 35.1756 36.5293 34.6923 36.9885-0.241624 0.229628ZM36.9149 33.0369 39.5265 41.5914 31.1159 38.548Z" fill="#00A0DF" transform="matrix(1 0 0 -1 724.5 489.091)"/><rect x="764.5" y="434.5" width="69" height="26" stroke="#0074A4" stroke-width="1.33333" stroke-miterlimit="8" fill="none"/><text fill="#FF0000" font-family="Calibri,Calibri_MSFontService,sans-serif" font-weight="400" font-size="21" transform="translate(793.086 454)">4</text><path d="M0.26904-0.196796 20.8076 27.8813 20.2695 28.2749-0.26904 0.196796ZM22.9798 24.6404 24.4744 33.4589 16.5228 29.3635Z" fill="#00A0DF" transform="matrix(1 0 0 -1 833.5 447.959)"/><path d="M0.045302-0.330241 17.9149 2.12109 17.8243 2.78157-0.045302 0.330241ZM17.0923-1.69276 24.4744 3.35738 16.005 6.23301Z" fill="#00A0DF" transform="matrix(1 0 0 -1 833.5 447.857)"/><rect x="858.5" y="401.5" width="70" height="26" stroke="#0074A4" stroke-width="1.33333" stroke-miterlimit="8" fill="none"/><text fill="#FF0000" font-family="Calibri,Calibri_MSFontService,sans-serif" font-weight="400" font-size="21" transform="translate(872.746 421)">(4,5)</text><rect x="858.5" y="431.5" width="70" height="26" stroke="#0074A4" stroke-width="1.33333" stroke-miterlimit="8" fill="none"/><text fill="#FF0000" font-family="Calibri,Calibri_MSFontService,sans-serif" font-weight="400" font-size="21" transform="translate(872.746 451)">(4,7)</text><rect x="764.5" y="511.5" width="69" height="26" stroke="#0074A4" stroke-width="1.33333" stroke-miterlimit="8" fill="none"/><text fill="#FF0000" font-family="Calibri,Calibri_MSFontService,sans-serif" font-weight="400" font-size="21" transform="translate(793.086 532)">7</text><rect x="764.5" y="549.5" width="69" height="25" stroke="#0074A4" stroke-width="1.33333" stroke-miterlimit="8" fill="none"/><text fill="#FF0000" font-family="Calibri,Calibri_MSFontService,sans-serif" font-weight="400" font-size="21" transform="translate(793.086 569)">8</text><rect x="858.5" y="462.5" width="70" height="26" stroke="#0074A4" stroke-width="1.33333" stroke-miterlimit="8" fill="none"/><text fill="#FF0000" font-family="Calibri,Calibri_MSFontService,sans-serif" font-weight="400" font-size="21" transform="translate(872.746 482)">(4,8)</text><rect x="858.5" y="511.5" width="70" height="26" stroke="#0074A4" stroke-width="1.33333" stroke-miterlimit="8" fill="none"/><text fill="#FF0000" font-family="Calibri,Calibri_MSFontService,sans-serif" font-weight="400" font-size="21" transform="translate(872.746 531)">(7,4)</text><rect x="858.5" y="565.5" width="70" height="25" stroke="#0074A4" stroke-width="1.33333" stroke-miterlimit="8" fill="none"/><text fill="#FF0000" font-family="Calibri,Calibri_MSFontService,sans-serif" font-weight="400" font-size="21" transform="translate(872.746 585)">(8,4)</text><rect x="858.5" y="598.5" width="70" height="26" stroke="#0074A4" stroke-width="1.33333" stroke-miterlimit="8" fill="none"/><text fill="#FF0000" font-family="Calibri,Calibri_MSFontService,sans-serif" font-weight="400" font-size="21" transform="translate(872.746 619)">(8,5)</text><rect x="858.5" y="632.5" width="70" height="26" stroke="#0074A4" stroke-width="1.33333" stroke-miterlimit="8" fill="none"/><text fill="#FF0000" font-family="Calibri,Calibri_MSFontService,sans-serif" font-weight="400" font-size="21" transform="translate(872.746 652)">(8,8)</text><path d="M833.75 447.28 853.823 470.114 853.323 470.555 833.25 447.72ZM855.697 466.692 857.974 475.342 849.688 471.974Z" fill="#00A0DF"/><path d="M0.00354162-0.333315 17.8117-0.144095 17.8046 0.522535-0.00354162 0.333315ZM16.5174-3.82472 24.4744 0.260052 16.4324 4.17483Z" fill="#00A0DF" transform="matrix(1 0 0 -1 833.5 524.76)"/><path d="M833.685 561.223 852.608 573.808 852.239 574.363 833.315 561.778ZM853.528 570.017 857.974 577.778 849.098 576.678Z" fill="#00A0DF"/><path d="M833.799 561.354 855.346 605.423 854.747 605.716 833.201 561.646ZM858.054 602.615 857.974 611.559 850.867 606.129Z" fill="#00A0DF"/><path d="M833.82 561.407 856.426 638.847 855.786 639.034 833.18 561.593ZM859.572 636.54 857.974 645.34 851.893 638.781Z" fill="#00A0DF"/><path d="M724.723 489.252 759.287 520.259 758.841 520.755 724.277 489.748ZM760.743 516.639 764.027 524.959 755.401 522.594Z" fill="#00A0DF"/><path d="M724.793 489.34 761.126 555.916 760.54 556.235 724.207 489.66ZM763.705 552.989 764.027 561.927 756.683 556.821Z" fill="#00A0DF"/><text font-family="Calibri,Calibri_MSFontService,sans-serif" font-weight="700" font-size="24" transform="translate(75.5255 277)">b</text><path d="M53 48.8135C53 35.1094 64.1093 24 77.8133 24L944.187 24C957.891 24 969 35.1094 969 48.8135L969 204.187C969 217.891 957.891 229 944.187 229L77.8133 229C64.1093 229 53 217.891 53 204.187Z" stroke="#92D050" stroke-width="2" stroke-miterlimit="8" stroke-dasharray="8 6" stroke-opacity="0.501961" fill="#FFFFFF" fill-rule="evenodd"/><rect x="124.5" y="175.5" width="108" height="25" stroke="#0074A4" stroke-width="1.33333" stroke-miterlimit="8" fill="none"/><text fill="#FF0000" font-family="Calibri,Calibri_MSFontService,sans-serif" font-weight="400" font-size="21" transform="translate(153.064 195)">α<tspan font-size="21" x="12.1667" y="0">-</tspan>O<tspan font-size="21" x="32.8333" y="0">-</tspan>4</text><path d="M0.20501-0.262835 18.3974 13.9272 17.9874 14.4528-0.20501 0.262835ZM19.6012 10.2159 23.4491 18.2902 14.681 16.524Z" fill="#00A0DF" transform="matrix(1 0 0 -1 232.5 187.79)"/><rect x="256.5" y="156.5" width="70" height="26" stroke="#0074A4" stroke-width="1.33333" stroke-miterlimit="8" fill="none"/><text fill="#FF0000" font-family="Calibri,Calibri_MSFontService,sans-serif" font-weight="400" font-size="21" transform="translate(270.655 176)">(4,7)</text><path d="M232.652 188.204 250.173 197.214 249.868 197.807 232.348 188.796ZM250.664 193.343 255.949 200.559 247.005 200.458Z" fill="#00A0DF"/><rect x="256.5" y="187.5" width="70" height="25" stroke="#0074A4" stroke-width="1.33333" stroke-miterlimit="8" fill="none"/><text fill="#FF0000" font-family="Calibri,Calibri_MSFontService,sans-serif" font-weight="400" font-size="21" transform="translate(270.655 207)">(7,4)</text><rect x="125.5" y="95.5001" width="108" height="25" stroke="#0074A4" stroke-width="1.33333" stroke-miterlimit="8" fill="none"/><text fill="#FF0000" font-family="Calibri,Calibri_MSFontService,sans-serif" font-weight="400" font-size="21" transform="translate(154.456 115)">4<tspan font-size="21" x="10.8333" y="0">-</tspan>O<tspan font-size="21" x="31.5" y="0">-</tspan>5</text><path d="M0.215281-0.25449 17.8486 14.6621 17.4181 15.171-0.215281 0.25449ZM19.1987 11.0015 22.7231 19.2222 14.032 17.1093Z" fill="#00A0DF" transform="matrix(1 0 0 -1 233.5 107.722)"/><rect x="256.5" y="76.5001" width="70" height="25" stroke="#0074A4" stroke-width="1.33333" stroke-miterlimit="8" fill="none"/><text fill="#FF0000" font-family="Calibri,Calibri_MSFontService,sans-serif" font-weight="400" font-size="21" transform="translate(270.655 96)">(4,5)</text><path d="M233.682 108.221 250.826 119.429 250.461 119.987 233.318 108.779ZM251.716 115.63 256.223 123.356 247.338 122.326Z" fill="#00A0DF"/><rect x="256.5" y="110.5" width="70" height="25" stroke="#0074A4" stroke-width="1.33333" stroke-miterlimit="8" fill="none"/><text fill="#FF0000" font-family="Calibri,Calibri_MSFontService,sans-serif" font-weight="400" font-size="21" transform="translate(270.655 130)">(5,4)</text><rect x="416.5" y="102.5" width="109" height="25" stroke="#0074A4" stroke-width="1.33333" stroke-miterlimit="8" fill="none"/><text fill="#FF0000" font-family="Calibri,Calibri_MSFontService,sans-serif" font-weight="400" font-size="21" transform="translate(445.715 122)">β<tspan font-size="21" x="11.3333" y="0">-</tspan>O<tspan font-size="21" x="32" y="0">-</tspan>4</text><path d="M0.163114-0.290697 23.6235 12.8733 23.2973 13.4547-0.163114 0.290697ZM24.255 9.02314 29.2743 16.4262 20.3402 15.9999Z" fill="#00A0DF" transform="matrix(1 0 0 -1 525.5 114.926)"/><rect x="554.5" y="85.5001" width="70" height="26" stroke="#0074A4" stroke-width="1.33333" stroke-miterlimit="8" fill="none"/><text fill="#FF0000" font-family="Calibri,Calibri_MSFontService,sans-serif" font-weight="400" font-size="21" transform="translate(568.714 105)">(4,8)</text><path d="M525.648 115.201 548.948 126.738 548.652 127.335 525.352 115.799ZM549.38 122.86 554.774 129.995 545.83 130.029Z" fill="#00A0DF"/><rect x="554.5" y="117.5" width="70" height="25" stroke="#0074A4" stroke-width="1.33333" stroke-miterlimit="8" fill="none"/><text fill="#FF0000" font-family="Calibri,Calibri_MSFontService,sans-serif" font-weight="400" font-size="21" transform="translate(568.714 136)">(8,4)</text><rect x="722.5" y="179.5" width="108" height="25" stroke="#0074A4" stroke-width="1.33333" stroke-miterlimit="8" fill="none"/><text fill="#FF0000" font-family="Calibri,Calibri_MSFontService,sans-serif" font-weight="400" font-size="21" transform="translate(761.83 199)">5<tspan font-size="21" x="10.8334" y="0">-</tspan>5</text><path d="M0.000284785-0.333333 19.9995-0.316247 19.999 0.35042-0.000284785 0.333333ZM18.6694-3.98405 26.6659 0.0227822 18.6625 4.01595Z" fill="#00A0DF" transform="matrix(1 0 0 -1 830.5 192.523)"/><rect x="857.5" y="179.5" width="70" height="25" stroke="#0074A4" stroke-width="1.33333" stroke-miterlimit="8" fill="none"/><text fill="#FF0000" font-family="Calibri,Calibri_MSFontService,sans-serif" font-weight="400" font-size="21" transform="translate(871.638 199)">(5,5)</text><rect x="416.5" y="177.5" width="109" height="25" stroke="#0074A4" stroke-width="1.33333" stroke-miterlimit="8" fill="none"/><text fill="#FF0000" font-family="Calibri,Calibri_MSFontService,sans-serif" font-weight="400" font-size="21" transform="translate(456.048 197)">β<tspan font-size="21" x="11.3333" y="0">-</tspan>5</text><path d="M0.18296-0.278634 23.8846 15.2846 23.5187 15.8419-0.18296 0.278634ZM24.7826 11.4878 29.2743 19.2225 20.3916 18.175Z" fill="#00A0DF" transform="matrix(1 0 0 -1 525.5 189.723)"/><rect x="554.5" y="157.5" width="70" height="26" stroke="#0074A4" stroke-width="1.33333" stroke-miterlimit="8" fill="none"/><text fill="#FF0000" font-family="Calibri,Calibri_MSFontService,sans-serif" font-weight="400" font-size="21" transform="translate(568.714 177)">(5,8)</text><path d="M525.648 189.201 548.948 200.738 548.652 201.335 525.352 189.799ZM549.38 196.86 554.774 203.995 545.83 204.029Z" fill="#00A0DF"/><rect x="554.5" y="191.5" width="70" height="25" stroke="#0074A4" stroke-width="1.33333" stroke-miterlimit="8" fill="none"/><text fill="#FF0000" font-family="Calibri,Calibri_MSFontService,sans-serif" font-weight="400" font-size="21" transform="translate(568.714 211)">(8,5)</text><rect x="722.5" y="100.5" width="108" height="25" stroke="#0074A4" stroke-width="1.33333" stroke-miterlimit="8" fill="none"/><text fill="#FF0000" font-family="Calibri,Calibri_MSFontService,sans-serif" font-weight="400" font-size="21" transform="translate(761.33 120)">β<tspan font-size="21" x="11.3334" y="0">-</tspan>β</text><path d="M0.000284785-0.333333 19.9995-0.316247 19.999 0.35042-0.000284785 0.333333ZM18.6694-3.98405 26.6659 0.0227822 18.6625 4.01595Z" fill="#00A0DF" transform="matrix(1 0 0 -1 830.5 112.523)"/><rect x="857.5" y="100.5" width="70" height="25" stroke="#0074A4" stroke-width="1.33333" stroke-miterlimit="8" fill="none"/><text fill="#FF0000" font-family="Calibri,Calibri_MSFontService,sans-serif" font-weight="400" font-size="21" transform="translate(871.638 120)">(8,8)<tspan fill="#000000" font-weight="700" font-size="24" x="-473.947" y="-69">Linkage</tspan><tspan fill="#000000" font-weight="700" font-size="24" x="-349.473" y="-69">(C1,C2)</tspan></text><path d="M485.5 44.1667 507.633 44.1668 507.633 44.8335 485.5 44.8334ZM506.3 40.5001 514.3 44.5002 506.3 48.5001Z" fill="#00A0DF"/><text font-family="Calibri,Calibri_MSFontService,sans-serif" font-weight="700" font-size="24" transform="translate(74.418 55)">a</text></g></svg>